<svg width="41" height="38" viewBox="0 0 41 38" fill="none" xmlns="http://www.w3.org/2000/svg">
<path fill-rule="evenodd" clip-rule="evenodd" d="M20.6841 37.2002C31.7298 37.2002 40.6841 28.9013 40.6841 18.664C40.6841 8.42676 31.7298 0.127808 20.6841 0.127808C9.63837 0.127808 0.684082 8.42676 0.684082 18.664C0.684082 28.9013 9.63837 37.2002 20.6841 37.2002ZM26.9234 8.76276C27.2271 7.76292 26.1802 7.17169 25.2241 7.80301L11.8772 16.6154C10.8403 17.3 11.0034 18.664 12.1222 18.664H15.6368V18.6388H22.4866L16.9053 20.464L14.4448 28.5653C14.1411 29.5652 15.1879 30.1564 16.1441 29.525L29.491 20.7127C30.5279 20.0281 30.3647 18.664 29.246 18.664H23.9162L26.9234 8.76276Z" fill="#F5841F"/>
</svg>
