<svg width="22" height="22" viewBox="0 0 22 22" fill="none" xmlns="http://www.w3.org/2000/svg">
<path fill-rule="evenodd" clip-rule="evenodd" d="M2 11C2 6.02944 6.02944 2 11 2C15.9706 2 20 6.02944 20 11C20 13.7218 18.7918 16.1615 16.8824 17.8118C16.331 15.0672 13.9069 13 11 13C8.09308 13 5.66898 15.0672 5.11764 17.8118C3.20824 16.1615 2 13.7218 2 11ZM7 19.0645C8.20496 19.6633 9.56316 20 11 20C12.4368 20 13.795 19.6633 15 19.0645V19C15 16.7908 13.2091 15 11 15C8.79086 15 7 16.7908 7 19V19.0645ZM11 0C4.92487 0 0 4.92487 0 11C0 17.0751 4.92487 22 11 22C17.0751 22 22 17.0751 22 11C22 4.92487 17.0751 0 11 0ZM11 9.99999C9.89543 9.99999 9 9.10456 9 7.99999C9 6.89542 9.89543 5.99999 11 5.99999C12.1046 5.99999 13 6.89542 13 7.99999C13 9.10456 12.1046 9.99999 11 9.99999ZM7 7.99999C7 10.2091 8.79086 12 11 12C13.2091 12 15 10.2091 15 7.99999C15 5.79085 13.2091 3.99999 11 3.99999C8.79086 3.99999 7 5.79085 7 7.99999Z" fill="#F5841F"/>
</svg>
